<?xml version="1.0" encoding="UTF-8"?>
<svg xmlns="http://www.w3.org/2000/svg" xmlns:xlink="http://www.w3.org/1999/xlink" viewBox="0 0 100 100" width="100px" height="100px">
<g id="surface16931072">
<path style=" stroke:none;fill-rule:nonzero;fill:rgb(9.019608%,50.588238%,59.607846%);fill-opacity:1;" d="M 50 82 C 32.328125 82 18 67.671875 18 50 C 18 32.328125 32.328125 18 50 18 C 67.671875 18 82 32.328125 82 50 C 82 67.671875 67.671875 82 50 82 Z M 50 82 "/>
<path style=" stroke:none;fill-rule:nonzero;fill:rgb(0%,0%,0%);fill-opacity:1;" d="M 41.199219 33.199219 C 36.789062 33.199219 33.199219 36.789062 33.199219 41.199219 L 33.199219 58.800781 C 33.199219 63.210938 36.789062 66.800781 41.199219 66.800781 L 58.800781 66.800781 C 63.210938 66.800781 66.800781 63.210938 66.800781 58.800781 L 66.800781 41.199219 C 66.800781 36.789062 63.210938 33.199219 58.800781 33.199219 Z M 41.199219 34.800781 L 58.800781 34.800781 C 62.34375 34.800781 65.199219 37.65625 65.199219 41.199219 L 65.199219 58.800781 C 65.199219 62.34375 62.34375 65.199219 58.800781 65.199219 L 41.199219 65.199219 C 37.65625 65.199219 34.800781 62.34375 34.800781 58.800781 L 34.800781 41.199219 C 34.800781 37.65625 37.65625 34.800781 41.199219 34.800781 Z M 50.414062 41.199219 C 47.238281 41.199219 44.496094 42.6875 43.273438 44.960938 C 40.5625 46.085938 38.859375 49.15625 39.933594 52.367188 C 40.449219 53.90625 41.589844 55.191406 43.078125 55.851562 C 44.691406 56.570312 46.21875 56.296875 47.554688 55.742188 L 47.863281 58.773438 C 47.894531 59.105469 48.132812 59.382812 48.453125 59.46875 C 48.777344 59.554688 49.117188 59.429688 49.3125 59.160156 L 52.160156 55.152344 C 53.679688 55.070312 54.910156 54.1875 55.695312 52.980469 C 55.722656 52.980469 55.722656 52.984375 55.757812 52.984375 C 58.308594 52.984375 60.398438 50.898438 60.398438 48.34375 C 60.398438 46.164062 58.859375 44.375 56.820312 43.886719 C 55.386719 42.234375 53.054688 41.199219 50.414062 41.199219 Z M 50.414062 42.800781 C 52.726562 42.800781 54.710938 43.757812 55.757812 45.066406 C 55.882812 45.222656 56.058594 45.324219 56.253906 45.355469 C 57.699219 45.59375 58.800781 46.828125 58.796875 48.34375 C 58.796875 50.03125 57.445312 51.386719 55.757812 51.386719 C 55.738281 51.386719 55.652344 51.371094 55.46875 51.351562 C 55.132812 51.320312 54.8125 51.507812 54.671875 51.8125 C 54.1875 52.859375 53.144531 53.589844 51.914062 53.589844 C 51.976562 53.589844 51.9375 53.582031 51.777344 53.570312 C 51.503906 53.558594 51.242188 53.683594 51.082031 53.90625 L 49.242188 56.496094 L 49.046875 54.566406 C 49.015625 54.289062 48.847656 54.046875 48.597656 53.925781 C 48.347656 53.804688 48.050781 53.824219 47.816406 53.972656 C 46.664062 54.714844 45.25 55.066406 43.730469 54.390625 C 42.667969 53.917969 41.824219 52.972656 41.453125 51.859375 C 40.597656 49.308594 41.980469 47.039062 44.085938 46.304688 C 44.289062 46.234375 44.457031 46.085938 44.546875 45.890625 C 45.351562 44.179688 47.636719 42.800781 50.414062 42.800781 Z M 50.414062 42.800781 "/>
</g>
</svg>
